<?xml version="1.0" encoding="UTF-8"?>
<svg width="700pt" height="700pt" version="1.1" viewBox="0 0 700 700" xmlns="http://www.w3.org/2000/svg" xmlns:xlink="http://www.w3.org/1999/xlink">
 <defs>
  <symbol id="m" overflow="visible">
   <path d="m29.312-1.75c-1.5117 0.78125-3.0898 1.3711-4.7344 1.7656-1.6367 0.40625-3.3398 0.60938-5.1094 0.60938-5.3125 0-9.5273-1.4844-12.641-4.4531-3.1055-2.9688-4.6562-7-4.6562-12.094s1.5508-9.125 4.6562-12.094c3.1133-2.9688 7.3281-4.4531 12.641-4.4531 1.7695 0 3.4727 0.19922 5.1094 0.59375 1.6445 0.39844 3.2227 0.99219 4.7344 1.7812v6.5938c-1.5312-1.0391-3.0391-1.8008-4.5156-2.2812-1.4805-0.48828-3.0391-0.73438-4.6719-0.73438-2.9375 0-5.2461 0.94531-6.9219 2.8281-1.6797 1.875-2.5156 4.4648-2.5156 7.7656 0 3.293 0.83594 5.8828 2.5156 7.7656 1.6758 1.875 3.9844 2.8125 6.9219 2.8125 1.6328 0 3.1914-0.23828 4.6719-0.71875 1.4766-0.48828 2.9844-1.2539 4.5156-2.2969z"/>
  </symbol>
  <symbol id="j" overflow="visible">
   <path d="m21.453-17.406c-0.67969-0.3125-1.3516-0.53906-2.0156-0.6875-0.65625-0.15625-1.3203-0.23438-1.9844-0.23438-1.9688 0-3.4844 0.63281-4.5469 1.8906-1.0547 1.2617-1.5781 3.0703-1.5781 5.4219v11.016h-7.6562v-23.922h7.6562v3.9219c0.97656-1.5625 2.1016-2.7031 3.375-3.4219 1.2812-0.71875 2.8125-1.0781 4.5938-1.0781 0.25 0 0.52344 0.011719 0.82812 0.03125 0.30078 0.023438 0.73438 0.070312 1.2969 0.14062z"/>
  </symbol>
  <symbol id="b" overflow="visible">
   <path d="m27.562-12.031v2.1875h-17.891c0.1875 1.793 0.83203 3.1367 1.9375 4.0312 1.1133 0.89844 2.6719 1.3438 4.6719 1.3438 1.6016 0 3.25-0.23438 4.9375-0.70312 1.6875-0.47656 3.4219-1.2031 5.2031-2.1719v5.8906c-1.8047 0.6875-3.6094 1.2031-5.4219 1.5469-1.8125 0.35156-3.6211 0.53125-5.4219 0.53125-4.3359 0-7.7031-1.0977-10.109-3.2969-2.3984-2.207-3.5938-5.2969-3.5938-9.2656 0-3.9062 1.1758-6.9727 3.5312-9.2031 2.3633-2.2383 5.6094-3.3594 9.7344-3.3594 3.7578 0 6.7695 1.1367 9.0312 3.4062 2.2578 2.2617 3.3906 5.2812 3.3906 9.0625zm-7.8594-2.5312c0-1.457-0.42969-2.6289-1.2812-3.5156-0.84375-0.89453-1.9492-1.3438-3.3125-1.3438-1.4922 0-2.6992 0.41797-3.625 1.25-0.91797 0.83594-1.4922 2.0391-1.7188 3.6094z"/>
  </symbol>
  <symbol id="i" overflow="visible">
   <path d="m14.391-10.766c-1.5938 0-2.793 0.27344-3.5938 0.8125-0.80469 0.54297-1.2031 1.3398-1.2031 2.3906 0 0.96875 0.32031 1.7305 0.96875 2.2812 0.64453 0.54297 1.5469 0.8125 2.7031 0.8125 1.4375 0 2.6445-0.51562 3.625-1.5469 0.98828-1.0312 1.4844-2.3203 1.4844-3.875v-0.875zm11.688-2.8906v13.656h-7.7031v-3.5469c-1.0312 1.4492-2.1875 2.5078-3.4688 3.1719s-2.8398 1-4.6719 1c-2.4805 0-4.4961-0.72266-6.0469-2.1719-1.543-1.4453-2.3125-3.3203-2.3125-5.625 0-2.8125 0.96094-4.8672 2.8906-6.1719 1.9375-1.3125 4.9688-1.9688 9.0938-1.9688h4.5156v-0.60938c0-1.207-0.48047-2.0938-1.4375-2.6562-0.94922-0.5625-2.4375-0.84375-4.4688-0.84375-1.6367 0-3.1562 0.16797-4.5625 0.5-1.4062 0.32422-2.7188 0.8125-3.9375 1.4688v-5.8281c1.6445-0.40625 3.2891-0.70703 4.9375-0.90625 1.6562-0.20703 3.3047-0.3125 4.9531-0.3125 4.3203 0 7.4375 0.85547 9.3438 2.5625 1.9141 1.6992 2.875 4.4609 2.875 8.2812z"/>
  </symbol>
  <symbol id="h" overflow="visible">
   <path d="m12.031-30.719v6.7969h7.875v5.4688h-7.875v10.141c0 1.1172 0.21875 1.8711 0.65625 2.2656 0.4375 0.38672 1.3125 0.57812 2.625 0.57812h3.9375v5.4688h-6.5625c-3.0234 0-5.1641-0.62891-6.4219-1.8906-1.2617-1.2578-1.8906-3.3984-1.8906-6.4219v-10.141h-3.7969v-5.4688h3.7969v-6.7969z"/>
  </symbol>
  <symbol id="g" overflow="visible">
   <path d="m19.953-20.422v-12.812h7.6875v33.234h-7.6875v-3.4531c-1.0547 1.4062-2.2148 2.4375-3.4844 3.0938-1.2734 0.65625-2.7422 0.98438-4.4062 0.98438-2.9492 0-5.3711-1.1719-7.2656-3.5156-1.8867-2.3438-2.8281-5.3594-2.8281-9.0469s0.94141-6.7031 2.8281-9.0469c1.8945-2.3438 4.3164-3.5156 7.2656-3.5156 1.6562 0 3.1172 0.33594 4.3906 1 1.2812 0.65625 2.4453 1.6836 3.5 3.0781zm-5.0469 15.484c1.6445 0 2.8945-0.59766 3.75-1.7969 0.86328-1.1953 1.2969-2.9297 1.2969-5.2031 0-2.2812-0.43359-4.0195-1.2969-5.2188-0.85547-1.1953-2.1055-1.7969-3.75-1.7969-1.625 0-2.8711 0.60156-3.7344 1.7969-0.85547 1.1992-1.2812 2.9375-1.2812 5.2188 0 2.2734 0.42578 4.0078 1.2812 5.2031 0.86328 1.1992 2.1094 1.7969 3.7344 1.7969z"/>
  </symbol>
  <symbol id="f" overflow="visible">
   <path d="m16.406-4.9375c1.6328 0 2.8828-0.59766 3.75-1.7969 0.86328-1.1953 1.2969-2.9297 1.2969-5.2031 0-2.2812-0.43359-4.0195-1.2969-5.2188-0.86719-1.1953-2.1172-1.7969-3.75-1.7969-1.6367 0-2.8906 0.60547-3.7656 1.8125-0.875 1.1992-1.3125 2.9336-1.3125 5.2031 0 2.2617 0.4375 3.9961 1.3125 5.2031 0.875 1.1992 2.1289 1.7969 3.7656 1.7969zm-5.0781-15.484c1.0508-1.3945 2.2188-2.4219 3.5-3.0781 1.2812-0.66406 2.7539-1 4.4219-1 2.9453 0 5.3672 1.1719 7.2656 3.5156 1.8945 2.3438 2.8438 5.3594 2.8438 9.0469s-0.94922 6.7031-2.8438 9.0469c-1.8984 2.3438-4.3203 3.5156-7.2656 3.5156-1.668 0-3.1406-0.33594-4.4219-1s-2.4492-1.6914-3.5-3.0781v3.4531h-7.6562v-33.234h7.6562z"/>
  </symbol>
  <symbol id="e" overflow="visible">
   <path d="m0.53125-23.922h7.6562l6.4219 16.234 5.4688-16.234h7.6562l-10.062 26.188c-1.0117 2.6641-2.1953 4.5234-3.5469 5.5781-1.3438 1.0625-3.1211 1.5938-5.3281 1.5938h-4.4219v-5.0156h2.3906c1.3008 0 2.2422-0.21094 2.8281-0.625 0.59375-0.40625 1.0547-1.1484 1.3906-2.2188l0.20312-0.65625z"/>
  </symbol>
  <symbol id="d" overflow="visible">
   <path d="m26.219-30.891v6.75c-1.7617-0.78125-3.4766-1.3672-5.1406-1.7656-1.668-0.40625-3.2422-0.60938-4.7188-0.60938-1.9609 0-3.4141 0.27344-4.3594 0.8125-0.9375 0.54297-1.4062 1.3867-1.4062 2.5312 0 0.85547 0.31641 1.5234 0.95312 2 0.63281 0.46875 1.7852 0.875 3.4531 1.2188l3.5 0.70312c3.5391 0.71875 6.0625 1.8047 7.5625 3.25 1.5 1.4492 2.25 3.5117 2.25 6.1875 0 3.5234-1.0469 6.1406-3.1406 7.8594-2.0859 1.7188-5.2734 2.5781-9.5625 2.5781-2.0234 0-4.0547-0.19531-6.0938-0.57812-2.0312-0.38281-4.0625-0.95703-6.0938-1.7188v-6.9375c2.0312 1.0859 3.9922 1.9023 5.8906 2.4531 1.9062 0.54297 3.7422 0.8125 5.5156 0.8125 1.7891 0 3.1602-0.29688 4.1094-0.89062 0.95703-0.60156 1.4375-1.457 1.4375-2.5625 0-1-0.32422-1.7695-0.96875-2.3125-0.64844-0.53906-1.9375-1.0234-3.875-1.4531l-3.1875-0.70312c-3.1875-0.6875-5.5234-1.7734-7-3.2656-1.4688-1.5-2.2031-3.5156-2.2031-6.0469 0-3.1758 1.0234-5.6172 3.0781-7.3281 2.0508-1.707 5-2.5625 8.8438-2.5625 1.75 0 3.5508 0.13281 5.4062 0.39062 1.8516 0.26172 3.7695 0.65625 5.75 1.1875z"/>
  </symbol>
  <symbol id="c" overflow="visible">
   <path d="m4.0156-31.891h8.2188v12.156h12.141v-12.156h8.2188v31.891h-8.2188v-13.516h-12.141v13.516h-8.2188z"/>
  </symbol>
  <symbol id="a" overflow="visible">
   <path d="m23.375-5.8125h-12.859l-2.0312 5.8125h-8.2656l11.812-31.891h9.7969l11.812 31.891h-8.2656zm-10.812-5.9219h8.7344l-4.3594-12.688z"/>
  </symbol>
  <symbol id="l" overflow="visible">
   <path d="m15.703-17.75c1.7188 0 2.9531-0.31641 3.7031-0.95312 0.75-0.64453 1.125-1.7031 1.125-3.1719 0-1.4453-0.375-2.4844-1.125-3.1094-0.75-0.63281-1.9844-0.95312-3.7031-0.95312h-3.4688v8.1875zm-3.4688 5.6875v12.062h-8.2188v-31.891h12.562c4.1953 0 7.2734 0.70312 9.2344 2.1094 1.957 1.4062 2.9375 3.6367 2.9375 6.6875 0 2.1055-0.51172 3.8359-1.5312 5.1875-1.0117 1.3555-2.543 2.3555-4.5938 3 1.125 0.25 2.1289 0.82812 3.0156 1.7344 0.89453 0.90625 1.7969 2.2773 2.7031 4.1094l4.4688 9.0625h-8.7656l-3.875-7.9219c-0.79297-1.5938-1.5898-2.6797-2.3906-3.2656-0.80469-0.58203-1.875-0.875-3.2188-0.875z"/>
  </symbol>
  <symbol id="k" overflow="visible">
   <path d="m4.0156-31.891h22.203v6.2188h-13.984v5.9375h13.141v6.2188h-13.141v7.2969h14.453v6.2188h-22.672z"/>
  </symbol>
 </defs>
 <g>
  <path d="m150.41 394.54c-6.5312 3.5703-11.426 9.5234-13.672 16.621-2.2461 7.0938-1.6641 14.781 1.6211 21.457 3.2852 6.6758 9.0234 11.828 16.012 14.379 6.9922 2.5508 14.699 2.3008 21.512-0.69141 6.8125-2.9922 12.207-8.5 15.059-15.375 2.8516-6.8711 2.9375-14.582 0.24219-21.516-3.0312-7.7305-9.2344-13.785-17.035-16.629-7.7969-2.8438-16.445-2.207-23.738 1.7539zm19.336 41.301v-0.003906c-4.0469 1.4531-8.4961 1.3125-12.445-0.39063-3.9492-1.7031-7.1055-4.8438-8.8281-8.7812-1.7266-3.9414-1.8906-8.3906-0.46094-12.445 1.4258-4.0547 4.3438-7.418 8.1562-9.4102 3.8125-1.9883 8.2383-2.4609 12.383-1.3125 4.1445 1.1484 7.6992 3.8242 9.9453 7.4922 2.6328 4.375 3.168 9.7031 1.457 14.512-1.7109 4.8125-5.4883 8.6055-10.293 10.336z"/>
  <path d="m317.71 316.49c-6.4766 3.6172-11.312 9.5898-13.508 16.676-2.1914 7.0898-1.5742 14.75 1.7305 21.395 3.3047 6.6406 9.0391 11.758 16.016 14.289 6.9766 2.5273 14.656 2.2734 21.449-0.71094 6.793-2.9844 12.18-8.4688 15.035-15.312 2.8594-6.8477 2.9727-14.535 0.31641-21.461-3.0234-7.8008-9.2695-13.918-17.137-16.77-7.8672-2.8477-16.582-2.1602-23.902 1.8945zm19.336 41.301h0.003906c-4.0508 1.4492-8.4961 1.3086-12.445-0.39453s-7.1055-4.8438-8.832-8.7812c-1.7227-3.9414-1.8867-8.3867-0.45703-12.445 1.4258-4.0547 4.3398-7.418 8.1523-9.4102 3.8125-1.9883 8.2383-2.457 12.383-1.3125 4.1445 1.1484 7.7031 3.8242 9.9492 7.4922 2.7031 4.3633 3.2852 9.7188 1.5859 14.562s-5.5 8.6562-10.336 10.375z"/>
  <path d="m399 294-14.176-17.5c-4.0742-5.1016-9.6133-8.8242-15.875-10.672-6.2578-1.8477-12.934-1.7266-19.125 0.34766l-40.336 12.074c-9.8516 2.957-20.328 3.1367-30.277 0.52344-32.301-9.3984-66.441-10.57-99.312-3.4102-49.609 12.074-79.625 63.262-98.961 79.973-3.0898 2.6523-5.2344 6.2422-6.1016 10.219-0.86719 3.9805-0.41406 8.1328 1.2891 11.832l13.914 29.836v0.003906c-3.6602 3.6562-4.6719 9.1992-2.5391 13.91l8.1367 17.5c2.8086 5.9883 9.9336 8.5742 15.926 5.7773l19.164-8.75c0-0.69922-0.69922-1.4883-0.96094-2.1875h-0.003906c-5.1719-12.113-3.4922-26.07 4.4141-36.605 7.9023-10.539 20.828-16.059 33.906-14.48 13.074 1.5742 24.32 10.008 29.492 22.121l100.54-46.898c0-0.69922-0.69922-1.4883-0.96094-2.1875h-0.003906c-3.4766-8.8594-3.3867-18.719 0.24219-27.516 3.6328-8.7969 10.527-15.848 19.242-19.672 8.7148-3.8242 18.57-4.1289 27.504-0.85156 9.1445 3.4023 16.586 10.25 20.738 19.074l29.664-13.824c3.4297-1.5273 5.9531-4.5664 6.8281-8.2188 0.875-3.6523 0-7.5-2.3672-10.418zm-282.1 100.89-9.5391 4.4609 0.003906 0.003906c-2.4453 1.1367-5.3516 0.12891-6.5625-2.2773-0.57422-1.1719-0.65234-2.5234-0.22656-3.7539 0.42578-1.2305 1.3281-2.2422 2.5-2.8086l9.5391-4.4609c2.4414-1.2109 5.4023-0.23828 6.6484 2.1875 0.59375 1.1914 0.67969 2.5703 0.23438 3.8281-0.44531 1.2539-1.3828 2.2734-2.5977 2.8203zm66.852-55.824c1.2461 2.7812 0.039062 6.0469-2.7109 7.3516l-80.414 37.359c-1.332 0.625-2.8594 0.6875-4.2422 0.17969-1.3789-0.51172-2.5-1.5508-3.1094-2.8906l-4.5508-9.5391h0.003906c-0.87109-1.9297-0.375-4.207 1.2227-5.5977 6.8828-6.4336 13.316-13.332 19.25-20.652 13.82-17.695 30.258-33.184 48.738-45.938 1.3516-0.82031 2.9883-1.0352 4.5039-0.58594 1.5195 0.45312 2.7734 1.5234 3.457 2.9492zm36.664 7.6992-9.4492 4.4609-0.003906 0.003906c-2.4648 1.1953-5.4336 0.17969-6.6484-2.2773-0.56641-1.1797-0.63281-2.543-0.19141-3.7734 0.44531-1.2344 1.3633-2.2383 2.5547-2.7891l9.4492-4.4609c2.4414-1.2109 5.4023-0.23828 6.6484 2.1875 0.58203 1.2227 0.625 2.6328 0.12891 3.8945-0.49609 1.2578-1.4922 2.2539-2.7539 2.7539zm55.562-44.625-71.75 33.512c-1.3359 0.625-2.8633 0.6875-4.2422 0.17969-1.3789-0.51172-2.5-1.5508-3.1094-2.8906l-17.5-36.836c-0.67188-1.4648-0.66016-3.1523 0.03125-4.6055s1.9961-2.5234 3.5547-2.9219c30.383-6.6367 61.949-5.5234 91.789 3.2383 2.25 0.58203 3.8906 2.5117 4.1055 4.8242 0.21484 2.3125-1.0391 4.5117-3.1445 5.5z"/>
  <path d="m521.5 398.74c-4.2656 11.418-2.6367 24.203 4.3594 34.188 6.9922 9.9805 18.453 15.883 30.641 15.773 9.3242-0.26172 18.215-3.9961 24.93-10.469 6.7188-6.4766 10.777-15.223 11.383-24.531 0.60156-11.816-4.4844-23.207-13.68-30.648-9.1953-7.4414-21.395-10.043-32.828-6.9922-11.43 3.0508-20.715 11.383-24.98 22.418zm18.898 12.949c0.019531-4.9375 2.3516-9.582 6.3008-12.543 3.9492-2.9648 9.0586-3.9023 13.801-2.5391 4.7461 1.3633 8.5781 4.875 10.352 9.4805 1.1289 2.9922 1.3398 6.25 0.60938 9.3633-0.65625 2.6836-2.0156 5.1406-3.9375 7.125-1.9219 1.9844-4.3398 3.4219-7 4.1641-4.7422 1.3711-9.8516 0.4375-13.805-2.5195-3.957-2.9531-6.293-7.5938-6.3203-12.531z"/>
  <path d="m428.75 264.16v-135.1h-13.562v-17.5h37.887l134.49 157.5h-52.062l-93.012-140h-2.3633v135.1h18.023v18.289-0.003906c0 1.5781-0.625 3.0938-1.7422 4.207-1.1133 1.1172-2.6289 1.7422-4.207 1.7422h-8.75v2.4531c0 1.4961-1.2148 2.7109-2.7109 2.7109h-1.2266c0.49219 1.3438 1.3008 2.543 2.3633 3.5 4.0703 3.418 7.6367 7.3945 10.586 11.812 1.6797 2.9922 2.4453 6.4141 2.1953 9.8359-0.25 3.4219-1.5 6.6953-3.5938 9.4141-2.9219 2.9766-6.6016 5.0977-10.645 6.1328-4.0391 1.0312-8.2891 0.9375-12.281-0.26953-4.6797-1.1875-8.4531-4.6367-10.062-9.1875-0.98828-4.1211-1.3125-8.375-0.96094-12.602 2.5391-2.9766 5.8633-1.3125 5.9492 1.2266-0.0625 4.2031 2.1016 8.1289 5.6875 10.324 4.9141 2.4883 10.902 1.1289 14.262-3.2383 3.7617-5.6875-3.5859-12.336-7.5234-15.664v0.003906c-3.418-2.8242-5.5859-6.8789-6.0391-11.289h-1.6641 0.003906c-1.5 0-2.7148-1.2148-2.7148-2.7109v-2.1016h-8.75c-3.2852 0-5.9492-2.6641-5.9492-5.9492v-18.637z"/>
  <path d="m520.8 285.51h105v113.05h-22.051c-3.8555-13.848-13.594-25.305-26.641-31.34-13.047-6.0312-28.086-6.0312-41.133 0-13.047 6.0352-22.785 17.492-26.641 31.34h-33.25v-11.812h2.1016c2.3203 0 4.5469-0.92188 6.1875-2.5625s2.5625-3.8672 2.5625-6.1875v-7.5234c0-4.3984-3.5664-7.9648-7.9609-7.9648h-2.7109l-0.003906-31.848c0-11.871 4.6719-23.262 13.008-31.711 8.3359-8.4531 19.664-13.281 31.531-13.441z"/>
  <use x="70" y="691.25" xlink:href="#m"/>
  <use x="102.109375" y="691.25" xlink:href="#j"/>
  <use x="123.683594" y="691.25" xlink:href="#b"/>
  <use x="153.355469" y="691.25" xlink:href="#i"/>
  <use x="182.878906" y="691.25" xlink:href="#h"/>
  <use x="203.792969" y="691.25" xlink:href="#b"/>
  <use x="233.464844" y="691.25" xlink:href="#g"/>
  <use x="280.011719" y="691.25" xlink:href="#f"/>
  <use x="311.328125" y="691.25" xlink:href="#e"/>
  <use x="355.078125" y="691.25" xlink:href="#d"/>
  <use x="386.589844" y="691.25" xlink:href="#c"/>
  <use x="423.203125" y="691.25" xlink:href="#a"/>
  <use x="457.0625" y="691.25" xlink:href="#c"/>
  <use x="493.679688" y="691.25" xlink:href="#a"/>
  <use x="527.539062" y="691.25" xlink:href="#l"/>
  <use x="561.226562" y="691.25" xlink:href="#k"/>
  <use x="591.113281" y="691.25" xlink:href="#a"/>
 </g>
</svg>
