<?xml version="1.0" encoding="UTF-8"?>
<svg width="700pt" height="700pt" version="1.1" viewBox="0 0 700 700" xmlns="http://www.w3.org/2000/svg" xmlns:xlink="http://www.w3.org/1999/xlink">
 <defs>
  <symbol id="m" overflow="visible">
   <path d="m29.312-1.75c-1.5117 0.78125-3.0898 1.3711-4.7344 1.7656-1.6367 0.40625-3.3398 0.60938-5.1094 0.60938-5.3125 0-9.5273-1.4844-12.641-4.4531-3.1055-2.9688-4.6562-7-4.6562-12.094s1.5508-9.125 4.6562-12.094c3.1133-2.9688 7.3281-4.4531 12.641-4.4531 1.7695 0 3.4727 0.19922 5.1094 0.59375 1.6445 0.39844 3.2227 0.99219 4.7344 1.7812v6.5938c-1.5312-1.0391-3.0391-1.8008-4.5156-2.2812-1.4805-0.48828-3.0391-0.73438-4.6719-0.73438-2.9375 0-5.2461 0.94531-6.9219 2.8281-1.6797 1.875-2.5156 4.4648-2.5156 7.7656 0 3.293 0.83594 5.8828 2.5156 7.7656 1.6758 1.875 3.9844 2.8125 6.9219 2.8125 1.6328 0 3.1914-0.23828 4.6719-0.71875 1.4766-0.48828 2.9844-1.2539 4.5156-2.2969z"/>
  </symbol>
  <symbol id="j" overflow="visible">
   <path d="m21.453-17.406c-0.67969-0.3125-1.3516-0.53906-2.0156-0.6875-0.65625-0.15625-1.3203-0.23438-1.9844-0.23438-1.9688 0-3.4844 0.63281-4.5469 1.8906-1.0547 1.2617-1.5781 3.0703-1.5781 5.4219v11.016h-7.6562v-23.922h7.6562v3.9219c0.97656-1.5625 2.1016-2.7031 3.375-3.4219 1.2812-0.71875 2.8125-1.0781 4.5938-1.0781 0.25 0 0.52344 0.011719 0.82812 0.03125 0.30078 0.023438 0.73438 0.070312 1.2969 0.14062z"/>
  </symbol>
  <symbol id="b" overflow="visible">
   <path d="m27.562-12.031v2.1875h-17.891c0.1875 1.793 0.83203 3.1367 1.9375 4.0312 1.1133 0.89844 2.6719 1.3438 4.6719 1.3438 1.6016 0 3.25-0.23438 4.9375-0.70312 1.6875-0.47656 3.4219-1.2031 5.2031-2.1719v5.8906c-1.8047 0.6875-3.6094 1.2031-5.4219 1.5469-1.8125 0.35156-3.6211 0.53125-5.4219 0.53125-4.3359 0-7.7031-1.0977-10.109-3.2969-2.3984-2.207-3.5938-5.2969-3.5938-9.2656 0-3.9062 1.1758-6.9727 3.5312-9.2031 2.3633-2.2383 5.6094-3.3594 9.7344-3.3594 3.7578 0 6.7695 1.1367 9.0312 3.4062 2.2578 2.2617 3.3906 5.2812 3.3906 9.0625zm-7.8594-2.5312c0-1.457-0.42969-2.6289-1.2812-3.5156-0.84375-0.89453-1.9492-1.3438-3.3125-1.3438-1.4922 0-2.6992 0.41797-3.625 1.25-0.91797 0.83594-1.4922 2.0391-1.7188 3.6094z"/>
  </symbol>
  <symbol id="i" overflow="visible">
   <path d="m14.391-10.766c-1.5938 0-2.793 0.27344-3.5938 0.8125-0.80469 0.54297-1.2031 1.3398-1.2031 2.3906 0 0.96875 0.32031 1.7305 0.96875 2.2812 0.64453 0.54297 1.5469 0.8125 2.7031 0.8125 1.4375 0 2.6445-0.51562 3.625-1.5469 0.98828-1.0312 1.4844-2.3203 1.4844-3.875v-0.875zm11.688-2.8906v13.656h-7.7031v-3.5469c-1.0312 1.4492-2.1875 2.5078-3.4688 3.1719s-2.8398 1-4.6719 1c-2.4805 0-4.4961-0.72266-6.0469-2.1719-1.543-1.4453-2.3125-3.3203-2.3125-5.625 0-2.8125 0.96094-4.8672 2.8906-6.1719 1.9375-1.3125 4.9688-1.9688 9.0938-1.9688h4.5156v-0.60938c0-1.207-0.48047-2.0938-1.4375-2.6562-0.94922-0.5625-2.4375-0.84375-4.4688-0.84375-1.6367 0-3.1562 0.16797-4.5625 0.5-1.4062 0.32422-2.7188 0.8125-3.9375 1.4688v-5.8281c1.6445-0.40625 3.2891-0.70703 4.9375-0.90625 1.6562-0.20703 3.3047-0.3125 4.9531-0.3125 4.3203 0 7.4375 0.85547 9.3438 2.5625 1.9141 1.6992 2.875 4.4609 2.875 8.2812z"/>
  </symbol>
  <symbol id="h" overflow="visible">
   <path d="m12.031-30.719v6.7969h7.875v5.4688h-7.875v10.141c0 1.1172 0.21875 1.8711 0.65625 2.2656 0.4375 0.38672 1.3125 0.57812 2.625 0.57812h3.9375v5.4688h-6.5625c-3.0234 0-5.1641-0.62891-6.4219-1.8906-1.2617-1.2578-1.8906-3.3984-1.8906-6.4219v-10.141h-3.7969v-5.4688h3.7969v-6.7969z"/>
  </symbol>
  <symbol id="g" overflow="visible">
   <path d="m19.953-20.422v-12.812h7.6875v33.234h-7.6875v-3.4531c-1.0547 1.4062-2.2148 2.4375-3.4844 3.0938-1.2734 0.65625-2.7422 0.98438-4.4062 0.98438-2.9492 0-5.3711-1.1719-7.2656-3.5156-1.8867-2.3438-2.8281-5.3594-2.8281-9.0469s0.94141-6.7031 2.8281-9.0469c1.8945-2.3438 4.3164-3.5156 7.2656-3.5156 1.6562 0 3.1172 0.33594 4.3906 1 1.2812 0.65625 2.4453 1.6836 3.5 3.0781zm-5.0469 15.484c1.6445 0 2.8945-0.59766 3.75-1.7969 0.86328-1.1953 1.2969-2.9297 1.2969-5.2031 0-2.2812-0.43359-4.0195-1.2969-5.2188-0.85547-1.1953-2.1055-1.7969-3.75-1.7969-1.625 0-2.8711 0.60156-3.7344 1.7969-0.85547 1.1992-1.2812 2.9375-1.2812 5.2188 0 2.2734 0.42578 4.0078 1.2812 5.2031 0.86328 1.1992 2.1094 1.7969 3.7344 1.7969z"/>
  </symbol>
  <symbol id="f" overflow="visible">
   <path d="m16.406-4.9375c1.6328 0 2.8828-0.59766 3.75-1.7969 0.86328-1.1953 1.2969-2.9297 1.2969-5.2031 0-2.2812-0.43359-4.0195-1.2969-5.2188-0.86719-1.1953-2.1172-1.7969-3.75-1.7969-1.6367 0-2.8906 0.60547-3.7656 1.8125-0.875 1.1992-1.3125 2.9336-1.3125 5.2031 0 2.2617 0.4375 3.9961 1.3125 5.2031 0.875 1.1992 2.1289 1.7969 3.7656 1.7969zm-5.0781-15.484c1.0508-1.3945 2.2188-2.4219 3.5-3.0781 1.2812-0.66406 2.7539-1 4.4219-1 2.9453 0 5.3672 1.1719 7.2656 3.5156 1.8945 2.3438 2.8438 5.3594 2.8438 9.0469s-0.94922 6.7031-2.8438 9.0469c-1.8984 2.3438-4.3203 3.5156-7.2656 3.5156-1.668 0-3.1406-0.33594-4.4219-1s-2.4492-1.6914-3.5-3.0781v3.4531h-7.6562v-33.234h7.6562z"/>
  </symbol>
  <symbol id="e" overflow="visible">
   <path d="m0.53125-23.922h7.6562l6.4219 16.234 5.4688-16.234h7.6562l-10.062 26.188c-1.0117 2.6641-2.1953 4.5234-3.5469 5.5781-1.3438 1.0625-3.1211 1.5938-5.3281 1.5938h-4.4219v-5.0156h2.3906c1.3008 0 2.2422-0.21094 2.8281-0.625 0.59375-0.40625 1.0547-1.1484 1.3906-2.2188l0.20312-0.65625z"/>
  </symbol>
  <symbol id="d" overflow="visible">
   <path d="m26.219-30.891v6.75c-1.7617-0.78125-3.4766-1.3672-5.1406-1.7656-1.668-0.40625-3.2422-0.60938-4.7188-0.60938-1.9609 0-3.4141 0.27344-4.3594 0.8125-0.9375 0.54297-1.4062 1.3867-1.4062 2.5312 0 0.85547 0.31641 1.5234 0.95312 2 0.63281 0.46875 1.7852 0.875 3.4531 1.2188l3.5 0.70312c3.5391 0.71875 6.0625 1.8047 7.5625 3.25 1.5 1.4492 2.25 3.5117 2.25 6.1875 0 3.5234-1.0469 6.1406-3.1406 7.8594-2.0859 1.7188-5.2734 2.5781-9.5625 2.5781-2.0234 0-4.0547-0.19531-6.0938-0.57812-2.0312-0.38281-4.0625-0.95703-6.0938-1.7188v-6.9375c2.0312 1.0859 3.9922 1.9023 5.8906 2.4531 1.9062 0.54297 3.7422 0.8125 5.5156 0.8125 1.7891 0 3.1602-0.29688 4.1094-0.89062 0.95703-0.60156 1.4375-1.457 1.4375-2.5625 0-1-0.32422-1.7695-0.96875-2.3125-0.64844-0.53906-1.9375-1.0234-3.875-1.4531l-3.1875-0.70312c-3.1875-0.6875-5.5234-1.7734-7-3.2656-1.4688-1.5-2.2031-3.5156-2.2031-6.0469 0-3.1758 1.0234-5.6172 3.0781-7.3281 2.0508-1.707 5-2.5625 8.8438-2.5625 1.75 0 3.5508 0.13281 5.4062 0.39062 1.8516 0.26172 3.7695 0.65625 5.75 1.1875z"/>
  </symbol>
  <symbol id="c" overflow="visible">
   <path d="m4.0156-31.891h8.2188v12.156h12.141v-12.156h8.2188v31.891h-8.2188v-13.516h-12.141v13.516h-8.2188z"/>
  </symbol>
  <symbol id="a" overflow="visible">
   <path d="m23.375-5.8125h-12.859l-2.0312 5.8125h-8.2656l11.812-31.891h9.7969l11.812 31.891h-8.2656zm-10.812-5.9219h8.7344l-4.3594-12.688z"/>
  </symbol>
  <symbol id="l" overflow="visible">
   <path d="m15.703-17.75c1.7188 0 2.9531-0.31641 3.7031-0.95312 0.75-0.64453 1.125-1.7031 1.125-3.1719 0-1.4453-0.375-2.4844-1.125-3.1094-0.75-0.63281-1.9844-0.95312-3.7031-0.95312h-3.4688v8.1875zm-3.4688 5.6875v12.062h-8.2188v-31.891h12.562c4.1953 0 7.2734 0.70312 9.2344 2.1094 1.957 1.4062 2.9375 3.6367 2.9375 6.6875 0 2.1055-0.51172 3.8359-1.5312 5.1875-1.0117 1.3555-2.543 2.3555-4.5938 3 1.125 0.25 2.1289 0.82812 3.0156 1.7344 0.89453 0.90625 1.7969 2.2773 2.7031 4.1094l4.4688 9.0625h-8.7656l-3.875-7.9219c-0.79297-1.5938-1.5898-2.6797-2.3906-3.2656-0.80469-0.58203-1.875-0.875-3.2188-0.875z"/>
  </symbol>
  <symbol id="k" overflow="visible">
   <path d="m4.0156-31.891h22.203v6.2188h-13.984v5.9375h13.141v6.2188h-13.141v7.2969h14.453v6.2188h-22.672z"/>
  </symbol>
 </defs>
 <g>
  <path d="m507.5 224.18 40.602 21.613-47.949 37.625h-0.003906c-6.8008-1.3984-13.371-3.7539-19.512-7l37.012-29.051-31.938-16.977 28.613-48.648-51.449 26.25-9.5391-55.039-26.863 50.75-31.059-36.574-11.289 46.461c-5.6016-2.7109-11.199-5.1641-16.801-7.4375l15.75-77.961 40.164 47.512 37.535-70.699 13.738 78.75 80.324-40.773z"/>
  <path d="m186.02 360.59c-12.156 0.77734-23.547 6.2109-31.805 15.172-8.2539 8.9609-12.734 20.758-12.512 32.938 0.22266 12.184 5.1328 23.809 13.711 32.461s20.16 13.664 32.34 13.992c12.18 0.32812 24.016-4.0508 33.047-12.227 9.0352-8.1758 14.566-19.52 15.445-31.672 0.95703-13.629-4.0078-27.012-13.629-36.715-9.6211-9.707-22.957-14.789-36.598-13.949zm0 74.812c-6.9609-0.76953-13.371-4.1445-17.945-9.4492-4.5742-5.3047-6.9727-12.141-6.7148-19.137 0.25781-7 3.1523-13.641 8.1055-18.594s11.594-7.8477 18.594-8.1055c6.9961-0.25781 13.832 2.1406 19.137 6.7148 5.3047 4.5742 8.6797 10.984 9.4492 17.945 0.85937 8.3398-2.082 16.625-8 22.562-5.918 5.9336-14.195 8.8945-22.535 8.0625z"/>
  <path d="m488.69 360.59c-12.152 0.80078-23.527 6.25-31.766 15.219s-12.703 20.766-12.465 32.941c0.23828 12.176 5.1602 23.793 13.742 32.434 8.582 8.6406 20.16 13.641 32.336 13.965 12.172 0.32031 24.004-4.0586 33.027-12.234 9.0273-8.1758 14.555-19.516 15.438-31.66 0.93359-13.641-4.0547-27.02-13.688-36.719-9.6367-9.6992-22.98-14.781-36.625-13.945zm0 74.812c-6.9609-0.76953-13.371-4.1445-17.945-9.4492-4.5742-5.3047-6.9766-12.141-6.7188-19.137 0.25781-7 3.1562-13.641 8.1055-18.594 4.9531-4.9531 11.598-7.8477 18.594-8.1055 7-0.25781 13.836 2.1406 19.141 6.7148 5.3008 4.5742 8.6758 10.984 9.4492 17.945 0.89062 8.3477-2.0391 16.652-7.9648 22.598-5.9297 5.9453-14.223 8.8945-22.574 8.0273z"/>
  <path d="m625.1 383.43-8.75-36.312c-2.5469-10.492-8.2656-19.941-16.375-27.066-8.1094-7.125-18.219-11.574-28.953-12.746l-68.25-9.8008c-16.676-2.4453-32.359-9.4375-45.324-20.211l-12.074-9.9766 4.1133 11.461 2.2734 6.3008-5.4258 1.2266-11.109 2.4492 6.8242 5.3359c3.3867 2.2227 4.8047 6.4766 3.4336 10.289-1.375 3.8086-5.1836 6.1758-9.2109 5.7266h-130.02c-4.832 0-8.75-3.918-8.75-8.75v-66.852c-0.070312-4.2773 2.9648-7.9805 7.1758-8.75l2.7109 25.727 21.086-2.625 6.125 25.637 2.7109-32.898-15.488-3.6758 1.4883-8.75h0.003906c37.977 10.887 73.461 29.078 104.48 53.547l8.75-4.0234-18.727-28.352-3.1484-4.7266v0.003906c-31.176-20.5-65.938-34.926-102.46-42.527-81.898-15.484-161.88 39.727-202.21 50.664-6.5391 1.8164-12.289 5.7461-16.355 11.176-4.0703 5.4297-6.2266 12.055-6.1328 18.836v53.902c-3.8516 1.4648-7.1641 4.0664-9.5078 7.457-2.3438 3.3867-3.6055 7.4102-3.6172 11.527v31.414c0 5.2227 2.0742 10.23 5.7656 13.922s8.6992 5.7656 13.922 5.7656h35v-3.9375c1.582-20.926 13.898-39.535 32.547-49.164 18.645-9.6328 40.949-8.9023 58.93 1.9219 17.98 10.824 29.059 30.195 29.273 51.18h86.977l7.7891-9.8867-19.602-14.789 30.012-31.148-18.988 29.051 27.477 11.898-6.125 14.875h74.023v-3.9375c1.0312-15.539 8.0156-30.082 19.5-40.598 11.488-10.516 26.586-16.191 42.156-15.852 15.57 0.34375 30.406 6.6758 41.418 17.688 11.18 11.406 17.457 26.73 17.5 42.699h53.727c6.0742 0.054688 11.84-2.6875 15.633-7.4336 3.793-4.75 5.1914-10.977 3.793-16.891zm-319.73-61.25h17.5c2.2188-0.16797 4.4062 0.57812 6.0586 2.0664 1.6523 1.4844 2.625 3.5859 2.6914 5.8086 0.046875 2.1641-0.78125 4.2578-2.2969 5.8047-1.5117 1.5469-3.5859 2.4219-5.7539 2.418h-17.5c-2.2266 0.14453-4.4141-0.62109-6.0625-2.125-1.6523-1.5-2.6211-3.6055-2.6875-5.8359-0.09375-2.1953 0.71094-4.332 2.2305-5.918 1.5195-1.5898 3.625-2.4844 5.8203-2.4805zm-169.31 15.836h-17.5c-4.4609 0.050781-8.1289-3.5-8.2266-7.9609-0.046876-2.1445 0.77344-4.2148 2.2695-5.7461 1.5-1.5312 3.5508-2.3945 5.6953-2.3906h17.5c4.4414-0.054687 8.1211 3.4336 8.3125 7.875 0.046875 2.1641-0.78125 4.2578-2.2969 5.8047s-3.5898 2.418-5.7539 2.418zm-16.449-27.824c-4.832 0-8.75-3.918-8.75-8.75v-17.5c0.054688-3.4609 2.3633-6.4766 5.6875-7.4375 14.707-4.8359 29.062-10.684 42.961-17.5 30.012-13.562 66.324-30.012 104.3-34.477 2.5508-0.41406 5.1562 0.32422 7.1133 2.0117s3.0703 4.1562 3.0352 6.7383v67.551c0 2.3203-0.92188 4.5469-2.5625 6.1875-1.6406 1.6406-3.8672 2.5625-6.1875 2.5625z"/>
  <use x="70" y="691.25" xlink:href="#m"/>
  <use x="102.109375" y="691.25" xlink:href="#j"/>
  <use x="123.683594" y="691.25" xlink:href="#b"/>
  <use x="153.355469" y="691.25" xlink:href="#i"/>
  <use x="182.878906" y="691.25" xlink:href="#h"/>
  <use x="203.792969" y="691.25" xlink:href="#b"/>
  <use x="233.464844" y="691.25" xlink:href="#g"/>
  <use x="280.011719" y="691.25" xlink:href="#f"/>
  <use x="311.328125" y="691.25" xlink:href="#e"/>
  <use x="355.078125" y="691.25" xlink:href="#d"/>
  <use x="386.589844" y="691.25" xlink:href="#c"/>
  <use x="423.203125" y="691.25" xlink:href="#a"/>
  <use x="457.0625" y="691.25" xlink:href="#c"/>
  <use x="493.679688" y="691.25" xlink:href="#a"/>
  <use x="527.539062" y="691.25" xlink:href="#l"/>
  <use x="561.226562" y="691.25" xlink:href="#k"/>
  <use x="591.113281" y="691.25" xlink:href="#a"/>
 </g>
</svg>
