<?xml version="1.0" encoding="UTF-8"?>
<svg width="700pt" height="700pt" version="1.1" viewBox="0 0 700 700" xmlns="http://www.w3.org/2000/svg" xmlns:xlink="http://www.w3.org/1999/xlink">
 <defs>
  <symbol id="m" overflow="visible">
   <path d="m29.312-1.75c-1.5117 0.78125-3.0898 1.3711-4.7344 1.7656-1.6367 0.40625-3.3398 0.60938-5.1094 0.60938-5.3125 0-9.5273-1.4844-12.641-4.4531-3.1055-2.9688-4.6562-7-4.6562-12.094s1.5508-9.125 4.6562-12.094c3.1133-2.9688 7.3281-4.4531 12.641-4.4531 1.7695 0 3.4727 0.19922 5.1094 0.59375 1.6445 0.39844 3.2227 0.99219 4.7344 1.7812v6.5938c-1.5312-1.0391-3.0391-1.8008-4.5156-2.2812-1.4805-0.48828-3.0391-0.73438-4.6719-0.73438-2.9375 0-5.2461 0.94531-6.9219 2.8281-1.6797 1.875-2.5156 4.4648-2.5156 7.7656 0 3.293 0.83594 5.8828 2.5156 7.7656 1.6758 1.875 3.9844 2.8125 6.9219 2.8125 1.6328 0 3.1914-0.23828 4.6719-0.71875 1.4766-0.48828 2.9844-1.2539 4.5156-2.2969z"/>
  </symbol>
  <symbol id="j" overflow="visible">
   <path d="m21.453-17.406c-0.67969-0.3125-1.3516-0.53906-2.0156-0.6875-0.65625-0.15625-1.3203-0.23438-1.9844-0.23438-1.9688 0-3.4844 0.63281-4.5469 1.8906-1.0547 1.2617-1.5781 3.0703-1.5781 5.4219v11.016h-7.6562v-23.922h7.6562v3.9219c0.97656-1.5625 2.1016-2.7031 3.375-3.4219 1.2812-0.71875 2.8125-1.0781 4.5938-1.0781 0.25 0 0.52344 0.011719 0.82812 0.03125 0.30078 0.023438 0.73438 0.070312 1.2969 0.14062z"/>
  </symbol>
  <symbol id="b" overflow="visible">
   <path d="m27.562-12.031v2.1875h-17.891c0.1875 1.793 0.83203 3.1367 1.9375 4.0312 1.1133 0.89844 2.6719 1.3438 4.6719 1.3438 1.6016 0 3.25-0.23438 4.9375-0.70312 1.6875-0.47656 3.4219-1.2031 5.2031-2.1719v5.8906c-1.8047 0.6875-3.6094 1.2031-5.4219 1.5469-1.8125 0.35156-3.6211 0.53125-5.4219 0.53125-4.3359 0-7.7031-1.0977-10.109-3.2969-2.3984-2.207-3.5938-5.2969-3.5938-9.2656 0-3.9062 1.1758-6.9727 3.5312-9.2031 2.3633-2.2383 5.6094-3.3594 9.7344-3.3594 3.7578 0 6.7695 1.1367 9.0312 3.4062 2.2578 2.2617 3.3906 5.2812 3.3906 9.0625zm-7.8594-2.5312c0-1.457-0.42969-2.6289-1.2812-3.5156-0.84375-0.89453-1.9492-1.3438-3.3125-1.3438-1.4922 0-2.6992 0.41797-3.625 1.25-0.91797 0.83594-1.4922 2.0391-1.7188 3.6094z"/>
  </symbol>
  <symbol id="i" overflow="visible">
   <path d="m14.391-10.766c-1.5938 0-2.793 0.27344-3.5938 0.8125-0.80469 0.54297-1.2031 1.3398-1.2031 2.3906 0 0.96875 0.32031 1.7305 0.96875 2.2812 0.64453 0.54297 1.5469 0.8125 2.7031 0.8125 1.4375 0 2.6445-0.51562 3.625-1.5469 0.98828-1.0312 1.4844-2.3203 1.4844-3.875v-0.875zm11.688-2.8906v13.656h-7.7031v-3.5469c-1.0312 1.4492-2.1875 2.5078-3.4688 3.1719s-2.8398 1-4.6719 1c-2.4805 0-4.4961-0.72266-6.0469-2.1719-1.543-1.4453-2.3125-3.3203-2.3125-5.625 0-2.8125 0.96094-4.8672 2.8906-6.1719 1.9375-1.3125 4.9688-1.9688 9.0938-1.9688h4.5156v-0.60938c0-1.207-0.48047-2.0938-1.4375-2.6562-0.94922-0.5625-2.4375-0.84375-4.4688-0.84375-1.6367 0-3.1562 0.16797-4.5625 0.5-1.4062 0.32422-2.7188 0.8125-3.9375 1.4688v-5.8281c1.6445-0.40625 3.2891-0.70703 4.9375-0.90625 1.6562-0.20703 3.3047-0.3125 4.9531-0.3125 4.3203 0 7.4375 0.85547 9.3438 2.5625 1.9141 1.6992 2.875 4.4609 2.875 8.2812z"/>
  </symbol>
  <symbol id="h" overflow="visible">
   <path d="m12.031-30.719v6.7969h7.875v5.4688h-7.875v10.141c0 1.1172 0.21875 1.8711 0.65625 2.2656 0.4375 0.38672 1.3125 0.57812 2.625 0.57812h3.9375v5.4688h-6.5625c-3.0234 0-5.1641-0.62891-6.4219-1.8906-1.2617-1.2578-1.8906-3.3984-1.8906-6.4219v-10.141h-3.7969v-5.4688h3.7969v-6.7969z"/>
  </symbol>
  <symbol id="g" overflow="visible">
   <path d="m19.953-20.422v-12.812h7.6875v33.234h-7.6875v-3.4531c-1.0547 1.4062-2.2148 2.4375-3.4844 3.0938-1.2734 0.65625-2.7422 0.98438-4.4062 0.98438-2.9492 0-5.3711-1.1719-7.2656-3.5156-1.8867-2.3438-2.8281-5.3594-2.8281-9.0469s0.94141-6.7031 2.8281-9.0469c1.8945-2.3438 4.3164-3.5156 7.2656-3.5156 1.6562 0 3.1172 0.33594 4.3906 1 1.2812 0.65625 2.4453 1.6836 3.5 3.0781zm-5.0469 15.484c1.6445 0 2.8945-0.59766 3.75-1.7969 0.86328-1.1953 1.2969-2.9297 1.2969-5.2031 0-2.2812-0.43359-4.0195-1.2969-5.2188-0.85547-1.1953-2.1055-1.7969-3.75-1.7969-1.625 0-2.8711 0.60156-3.7344 1.7969-0.85547 1.1992-1.2812 2.9375-1.2812 5.2188 0 2.2734 0.42578 4.0078 1.2812 5.2031 0.86328 1.1992 2.1094 1.7969 3.7344 1.7969z"/>
  </symbol>
  <symbol id="f" overflow="visible">
   <path d="m16.406-4.9375c1.6328 0 2.8828-0.59766 3.75-1.7969 0.86328-1.1953 1.2969-2.9297 1.2969-5.2031 0-2.2812-0.43359-4.0195-1.2969-5.2188-0.86719-1.1953-2.1172-1.7969-3.75-1.7969-1.6367 0-2.8906 0.60547-3.7656 1.8125-0.875 1.1992-1.3125 2.9336-1.3125 5.2031 0 2.2617 0.4375 3.9961 1.3125 5.2031 0.875 1.1992 2.1289 1.7969 3.7656 1.7969zm-5.0781-15.484c1.0508-1.3945 2.2188-2.4219 3.5-3.0781 1.2812-0.66406 2.7539-1 4.4219-1 2.9453 0 5.3672 1.1719 7.2656 3.5156 1.8945 2.3438 2.8438 5.3594 2.8438 9.0469s-0.94922 6.7031-2.8438 9.0469c-1.8984 2.3438-4.3203 3.5156-7.2656 3.5156-1.668 0-3.1406-0.33594-4.4219-1s-2.4492-1.6914-3.5-3.0781v3.4531h-7.6562v-33.234h7.6562z"/>
  </symbol>
  <symbol id="e" overflow="visible">
   <path d="m0.53125-23.922h7.6562l6.4219 16.234 5.4688-16.234h7.6562l-10.062 26.188c-1.0117 2.6641-2.1953 4.5234-3.5469 5.5781-1.3438 1.0625-3.1211 1.5938-5.3281 1.5938h-4.4219v-5.0156h2.3906c1.3008 0 2.2422-0.21094 2.8281-0.625 0.59375-0.40625 1.0547-1.1484 1.3906-2.2188l0.20312-0.65625z"/>
  </symbol>
  <symbol id="d" overflow="visible">
   <path d="m26.219-30.891v6.75c-1.7617-0.78125-3.4766-1.3672-5.1406-1.7656-1.668-0.40625-3.2422-0.60938-4.7188-0.60938-1.9609 0-3.4141 0.27344-4.3594 0.8125-0.9375 0.54297-1.4062 1.3867-1.4062 2.5312 0 0.85547 0.31641 1.5234 0.95312 2 0.63281 0.46875 1.7852 0.875 3.4531 1.2188l3.5 0.70312c3.5391 0.71875 6.0625 1.8047 7.5625 3.25 1.5 1.4492 2.25 3.5117 2.25 6.1875 0 3.5234-1.0469 6.1406-3.1406 7.8594-2.0859 1.7188-5.2734 2.5781-9.5625 2.5781-2.0234 0-4.0547-0.19531-6.0938-0.57812-2.0312-0.38281-4.0625-0.95703-6.0938-1.7188v-6.9375c2.0312 1.0859 3.9922 1.9023 5.8906 2.4531 1.9062 0.54297 3.7422 0.8125 5.5156 0.8125 1.7891 0 3.1602-0.29688 4.1094-0.89062 0.95703-0.60156 1.4375-1.457 1.4375-2.5625 0-1-0.32422-1.7695-0.96875-2.3125-0.64844-0.53906-1.9375-1.0234-3.875-1.4531l-3.1875-0.70312c-3.1875-0.6875-5.5234-1.7734-7-3.2656-1.4688-1.5-2.2031-3.5156-2.2031-6.0469 0-3.1758 1.0234-5.6172 3.0781-7.3281 2.0508-1.707 5-2.5625 8.8438-2.5625 1.75 0 3.5508 0.13281 5.4062 0.39062 1.8516 0.26172 3.7695 0.65625 5.75 1.1875z"/>
  </symbol>
  <symbol id="c" overflow="visible">
   <path d="m4.0156-31.891h8.2188v12.156h12.141v-12.156h8.2188v31.891h-8.2188v-13.516h-12.141v13.516h-8.2188z"/>
  </symbol>
  <symbol id="a" overflow="visible">
   <path d="m23.375-5.8125h-12.859l-2.0312 5.8125h-8.2656l11.812-31.891h9.7969l11.812 31.891h-8.2656zm-10.812-5.9219h8.7344l-4.3594-12.688z"/>
  </symbol>
  <symbol id="l" overflow="visible">
   <path d="m15.703-17.75c1.7188 0 2.9531-0.31641 3.7031-0.95312 0.75-0.64453 1.125-1.7031 1.125-3.1719 0-1.4453-0.375-2.4844-1.125-3.1094-0.75-0.63281-1.9844-0.95312-3.7031-0.95312h-3.4688v8.1875zm-3.4688 5.6875v12.062h-8.2188v-31.891h12.562c4.1953 0 7.2734 0.70312 9.2344 2.1094 1.957 1.4062 2.9375 3.6367 2.9375 6.6875 0 2.1055-0.51172 3.8359-1.5312 5.1875-1.0117 1.3555-2.543 2.3555-4.5938 3 1.125 0.25 2.1289 0.82812 3.0156 1.7344 0.89453 0.90625 1.7969 2.2773 2.7031 4.1094l4.4688 9.0625h-8.7656l-3.875-7.9219c-0.79297-1.5938-1.5898-2.6797-2.3906-3.2656-0.80469-0.58203-1.875-0.875-3.2188-0.875z"/>
  </symbol>
  <symbol id="k" overflow="visible">
   <path d="m4.0156-31.891h22.203v6.2188h-13.984v5.9375h13.141v6.2188h-13.141v7.2969h14.453v6.2188h-22.672z"/>
  </symbol>
 </defs>
 <g>
  <path d="m163.71 337.66c-9.6875 0.65234-18.746 5.0156-25.297 12.18-6.5508 7.168-10.086 16.586-9.8711 26.293 0.21875 9.707 4.1719 18.953 11.039 25.82 6.8633 6.8633 16.113 10.816 25.82 11.035 9.707 0.21875 19.125-3.3164 26.289-9.8672 7.168-6.5508 11.531-15.613 12.184-25.301 0.70312-10.852-3.3047-21.48-10.992-29.168-7.6914-7.6914-18.32-11.695-29.172-10.992zm0 59.676v-0.003906c-5.5586-0.60547-10.684-3.2969-14.34-7.5273-3.6562-4.2305-5.5781-9.6914-5.375-15.281s2.5156-10.895 6.4688-14.852c3.957-3.9531 9.2617-6.2656 14.852-6.4688s11.047 1.7188 15.277 5.375c4.2344 3.6602 6.9219 8.7812 7.5312 14.344 0.69141 6.6445-1.6445 13.25-6.3633 17.984-4.7148 4.7344-11.312 7.0938-17.961 6.4258z"/>
  <path d="m405.12 337.66c-9.6875 0.65234-18.75 5.0156-25.301 12.18-6.5508 7.168-10.086 16.586-9.8672 26.293s4.1719 18.953 11.035 25.82c6.8672 6.8633 16.117 10.816 25.824 11.035 9.7031 0.21875 19.121-3.3164 26.289-9.8672 7.1641-6.5508 11.531-15.613 12.184-25.301 0.67188-10.844-3.3438-21.453-11.027-29.137-7.6797-7.6836-18.293-11.699-29.137-11.023zm0 59.676v-0.003906c-5.5586-0.60547-10.684-3.2969-14.34-7.5273-3.6602-4.2305-5.5781-9.6914-5.375-15.281 0.19922-5.5898 2.5117-10.895 6.4688-14.852 3.9531-3.9531 9.2578-6.2656 14.848-6.4688 5.5898-0.20312 11.051 1.7188 15.281 5.375 4.2305 3.6602 6.9219 8.7812 7.5312 14.344 0.69141 6.6445-1.6484 13.25-6.3633 17.984-4.7188 4.7344-11.312 7.0938-17.965 6.4258z"/>
  <path d="m513.89 355.86-6.9141-28.961 0.003906-0.003906c-2-8.3789-6.5469-15.938-13.02-21.625-6.4727-5.6875-14.551-9.2305-23.121-10.137l-54.512-8.0508c-13.27-1.8594-25.773-7.3398-36.137-15.836-27.648-23.012-67.898-49.789-115.76-58.887-65.363-12.426-129.15 31.586-161.35 40.688-5.0781 1.5156-9.5312 4.6367-12.688 8.8945-3.1562 4.2617-4.8438 9.4297-4.8125 14.73v42.699c-3.082 1.1562-5.7383 3.2266-7.6133 5.9297-1.875 2.7031-2.8828 5.918-2.8867 9.207v25.027c-0.023438 4.168 1.6172 8.1758 4.5586 11.129 2.9375 2.957 6.9336 4.6211 11.105 4.6211h27.301v-3.1484-0.003906c1.3828-16.586 11.227-31.285 26.035-38.883 14.812-7.5977 32.492-7.0195 46.773 1.5312 14.281 8.5469 23.141 23.859 23.441 40.504h145.16v-3.1523c0.79688-11.664 5.793-22.648 14.059-30.914 8.2695-8.2695 19.25-13.262 30.918-14.059 13.312-0.89844 26.402 3.7734 36.141 12.895 9.7383 9.125 15.25 21.883 15.223 35.23h42.961c4.793-0.054687 9.3008-2.2891 12.246-6.0703 2.9453-3.7812 4.0117-8.6953 2.8906-13.355zm-261.36-118.82c-0.039063-2.1914 0.94141-4.2734 2.6602-5.6289 1.7188-1.3594 3.9727-1.832 6.0898-1.2852 39.398 9.0312 75.914 27.77 106.23 54.512 2.4102 1.8555 3.3945 5.0273 2.4492 7.918-0.94531 2.8906-3.6094 4.8711-6.6484 4.9453h-103.51c-1.9336 0.023438-3.7969-0.73438-5.1641-2.1016-1.3672-1.3672-2.125-3.2266-2.1016-5.1602zm6.3867 70h13.652c3.5586-0.050781 6.5078 2.7422 6.6484 6.2969 0.046874 1.7266-0.60156 3.3945-1.8047 4.6328-1.2031 1.2344-2.8555 1.9336-4.582 1.9297h-13.648c-3.5938 0.050781-6.5547-2.7969-6.6523-6.3867-0.09375-1.7539 0.53516-3.4688 1.7422-4.7422 1.2109-1.2773 2.8906-1.9961 4.6484-1.9961zm-135.01 12.598h-13.734c-1.7188 0.023437-3.375-0.63672-4.6055-1.832-1.2305-1.1992-1.9336-2.8359-1.957-4.5547-0.023437-1.6953 0.625-3.3281 1.8086-4.543 1.1797-1.2148 2.7969-1.9102 4.4883-1.9336h13.828c3.543-0.046876 6.4648 2.7617 6.5625 6.3008 0.046876 1.7266-0.60547 3.3945-1.8086 4.6328-1.2031 1.2344-2.8555 1.9297-4.582 1.9297zm-13.125-22.137c-1.918 0-3.7539-0.76953-5.1016-2.1328-1.3516-1.3633-2.0938-3.2109-2.0703-5.1289v-13.824c0.015626-2.7773 1.8711-5.207 4.5469-5.9531 11.715-3.8047 23.145-8.4219 34.215-13.824 26.168-13.359 54.23-22.625 83.211-27.473 2.0586-0.25 4.125 0.39063 5.6797 1.7617 1.5547 1.3711 2.4492 3.3398 2.457 5.4102v53.812c0 1.9258-0.76172 3.7734-2.125 5.1367-1.3633 1.3633-3.2109 2.1289-5.1367 2.1289z"/>
  <path d="m622.3 211.66-20.914 47.164v-0.003906c-1.5391-1.5352-3.2734-2.8594-5.1602-3.9375-2.5664-1.4766-5.3867-2.457-8.3125-2.8867l7.7891-16.539-39.375 13.738 2.2734-50.051-31.59 37.102-27.211-42.438v49.438l-31.676-1.4883 19.863 44.363c-4.9219-2.1211-10.148-3.4492-15.488-3.9375h-2.8867l-23.363-54.688 40.164 1.6641v-82.164l42.523 66.324 45.414-53.637-3.0625 70z"/>
  <path d="m552.91 297.94c15.68 2.4688 31.652 2.4688 47.336 0l-5.25-24.5c-0.32031-1.457-0.94531-2.8281-1.8359-4.0234-0.92578-1.293-2.1211-2.3672-3.5-3.1523-1.6797-0.96484-3.5781-1.4766-5.5156-1.4883h-15.398c-5.2344-0.027344-9.7695 3.6289-10.852 8.75z"/>
  <path d="m542.5 347.64 8.75-39.461c17.125 2.7812 34.586 2.7812 51.711 0l8.75 39.461c-22.52 5.6289-46.078 5.6289-68.598 0z"/>
  <path d="m534.8 382.99 5.3359-25.023v-0.003906c23.996 5.8984 49.066 5.8984 73.062 0l5.25 25.023v0.003906c4.0312 2.1133 6.6289 6.2148 6.8242 10.762 0 12.863-24.5 19.602-48.648 19.602s-48.738-6.7383-48.738-19.602c0.21484-4.5664 2.8516-8.6719 6.9141-10.762z"/>
  <use x="70" y="691.25" xlink:href="#m"/>
  <use x="102.109375" y="691.25" xlink:href="#j"/>
  <use x="123.683594" y="691.25" xlink:href="#b"/>
  <use x="153.355469" y="691.25" xlink:href="#i"/>
  <use x="182.878906" y="691.25" xlink:href="#h"/>
  <use x="203.792969" y="691.25" xlink:href="#b"/>
  <use x="233.464844" y="691.25" xlink:href="#g"/>
  <use x="280.011719" y="691.25" xlink:href="#f"/>
  <use x="311.328125" y="691.25" xlink:href="#e"/>
  <use x="355.078125" y="691.25" xlink:href="#d"/>
  <use x="386.589844" y="691.25" xlink:href="#c"/>
  <use x="423.203125" y="691.25" xlink:href="#a"/>
  <use x="457.0625" y="691.25" xlink:href="#c"/>
  <use x="493.679688" y="691.25" xlink:href="#a"/>
  <use x="527.539062" y="691.25" xlink:href="#l"/>
  <use x="561.226562" y="691.25" xlink:href="#k"/>
  <use x="591.113281" y="691.25" xlink:href="#a"/>
 </g>
</svg>
